<svg id="Layer_1" xmlns="http://www.w3.org/2000/svg" xmlns:xlink="http://www.w3.org/1999/xlink" xmlns:i="http://ns.adobe.com/AdobeIllustrator/10.0/" version="1.1" viewBox="0 0 467.58 198.78"><defs><style>.st0{fill:url(#linear-gradient)}</style><linearGradient id="linear-gradient" x1="22.45" y1="99.39" x2="445.12" y2="99.39" gradientUnits="userSpaceOnUse"><stop offset="0" stop-color="#262262"/><stop offset="1" stop-color="#f26522"/></linearGradient></defs><path class="st0" d="M26.18,135.54c-2.49-2.18-3.73-4.72-3.73-7.63,0-1.68.55-3.08,1.66-4.19s3.23-2.35,6.37-3.73l22.94-9.75v-15.83c0-4.51-.8-7.74-2.41-9.69s-3.86-2.93-6.77-2.93-5.28.82-7.11,2.47c-1.84,1.65-2.75,4.03-2.75,7.17,0,2.6.57,5.35,1.72,8.26-1.45,1.22-3.21,1.84-5.28,1.84-1.84,0-3.31-.5-4.42-1.49-1.11-.99-1.66-2.33-1.66-4.01s.76-3.54,2.29-5.33c1.53-1.8,4.17-4,7.92-6.6,3.82-2.52,7-4.32,9.52-5.39,2.52-1.07,5.05-1.61,7.57-1.61,4.74,0,8.62,1.49,11.64,4.47,3.02,2.98,4.53,7.11,4.53,12.39v34.64c0,1.38.42,2.49,1.26,3.33.84.84,1.95,1.26,3.33,1.26s3.02-.38,4.93-1.15v.69c-3.6,2.06-6.41,3.54-8.43,4.42-2.03.88-4.11,1.32-6.25,1.32-3.06,0-5.43-.92-7.11-2.75-1.68-1.84-2.52-4.36-2.52-7.57v-.92c-1.76,3.37-4.07,6.14-6.94,8.32-2.87,2.18-6.29,3.27-10.27,3.27-4.21,0-7.55-1.09-10.04-3.27ZM38.51,128.83c1.61,1.45,3.67,2.18,6.19,2.18,2.06,0,3.88-.55,5.45-1.66,1.57-1.11,2.66-2.47,3.27-4.07v-13.65l-10.78,4.59c-2.45,1.07-4.15,2.14-5.1,3.21-.96,1.07-1.43,2.41-1.43,4.01,0,2.14.8,3.94,2.41,5.39ZM91.22,135.54c-3.33-2.18-6-5.39-8.03-9.64-2.03-4.24-3.04-9.35-3.04-15.31,0-6.81,1.36-12.75,4.07-17.84,2.71-5.08,6.38-8.97,11.01-11.64,4.63-2.68,9.77-4.02,15.43-4.02,2.45,0,4.66.23,6.65.69,1.99.46,4.13,1.11,6.42,1.95v-21.68l-7.8-2.06v-.57l22.6-7h.12v82.71h6.31v.57l-21.11,7.11h-.11v-12.27c-3.75,3.83-7.32,6.83-10.73,9-3.4,2.18-7.05,3.27-10.96,3.27s-7.51-1.09-10.84-3.27ZM97.7,118.16c1.61,3.98,3.71,6.92,6.31,8.83,2.6,1.91,5.43,2.87,8.49,2.87,3.98,0,7.72-1.61,11.24-4.82v-38.66c-3.83-5.35-8.22-8.03-13.19-8.03-4.36,0-7.99,2.12-10.9,6.37-2.91,4.24-4.36,10.5-4.36,18.76,0,5.81.8,10.71,2.41,14.68ZM152.36,135.54c-2.49-2.18-3.73-4.72-3.73-7.63,0-1.68.55-3.08,1.66-4.19,1.11-1.11,3.23-2.35,6.37-3.73l22.94-9.75v-15.83c0-4.51-.8-7.74-2.41-9.69-1.61-1.95-3.86-2.93-6.77-2.93s-5.28.82-7.11,2.47c-1.83,1.65-2.75,4.03-2.75,7.17,0,2.6.57,5.35,1.72,8.26-1.45,1.22-3.21,1.84-5.28,1.84-1.83,0-3.31-.5-4.42-1.49-1.11-.99-1.66-2.33-1.66-4.01s.76-3.54,2.29-5.33c1.53-1.8,4.17-4,7.92-6.6,3.82-2.52,7-4.32,9.52-5.39,2.52-1.07,5.05-1.61,7.57-1.61,4.74,0,8.62,1.49,11.64,4.47,3.02,2.98,4.53,7.11,4.53,12.39v34.64c0,1.38.42,2.49,1.26,3.33.84.84,1.95,1.26,3.33,1.26s3.02-.38,4.93-1.15v.69c-3.6,2.06-6.41,3.54-8.43,4.42-2.03.88-4.11,1.32-6.25,1.32-3.06,0-5.43-.92-7.11-2.75-1.68-1.84-2.52-4.36-2.52-7.57v-.92c-1.76,3.37-4.07,6.14-6.94,8.32-2.87,2.18-6.29,3.27-10.27,3.27-4.21,0-7.55-1.09-10.04-3.27ZM164.69,128.83c1.61,1.45,3.67,2.18,6.19,2.18,2.06,0,3.88-.55,5.45-1.66,1.57-1.11,2.66-2.47,3.27-4.07v-13.65l-10.78,4.59c-2.45,1.07-4.15,2.14-5.1,3.21-.96,1.07-1.43,2.41-1.43,4.01,0,2.14.8,3.94,2.41,5.39ZM204.73,159.46l6.65-2.29v-70.43l-6.65-1.61v-.57l21.45-7.46h.11v12.16c3.82-3.82,7.42-6.81,10.78-8.95,3.36-2.14,7-3.21,10.9-3.21s7.51,1.07,10.84,3.21c3.33,2.14,6,5.33,8.03,9.58,2.03,4.24,3.04,9.39,3.04,15.43,0,6.88-1.32,12.85-3.96,17.9-2.64,5.05-6.25,8.91-10.84,11.59-4.59,2.68-9.68,4.02-15.26,4.02-2.52,0-4.84-.25-6.94-.75-2.1-.5-4.3-1.13-6.6-1.89v20.99l8.95,2.29v.57h-30.51v-.57ZM239.6,137.43c4.36,0,7.97-2.12,10.84-6.37,2.87-4.24,4.3-10.46,4.3-18.64,0-5.89-.8-10.82-2.41-14.8-1.61-3.98-3.71-6.92-6.31-8.83-2.6-1.91-5.43-2.87-8.49-2.87-3.98,0-7.73,1.61-11.24,4.82v38.77c3.75,5.28,8.18,7.92,13.31,7.92ZM284.97,135.31c-2.41-2.33-3.61-5.56-3.61-9.69v-41.07h-6.31v-.69c4.66-1.53,8.97-4.21,12.91-8.03,3.94-3.82,6.52-7.8,7.74-11.93h.69v14.91h15.03v5.74h-15.03v39.81c0,2.29.65,4.05,1.95,5.28,1.3,1.22,3.21,1.84,5.74,1.84,1.68,0,3.21-.3,4.59-.92,1.38-.61,2.87-1.53,4.47-2.75l.46.57c-4.89,4.05-8.58,6.81-11.07,8.26-2.49,1.45-5.1,2.18-7.86,2.18-4.05,0-7.29-1.17-9.69-3.5ZM340.07,85.41c1.2-2.03,2.62-3.86,4.28-5.51,1.66-1.64,3.44-2.47,5.35-2.47,2.29,0,4.31,1.17,6.04,3.5,1.73,2.33,3.04,5.72,3.94,10.15s1.47,9.18,1.81,14.68h.34c1.58-6.96,3.07-12.45,4.48-16.46,1.41-4.01,2.93-7,4.56-8.95,1.63-1.95,3.56-2.92,5.78-2.92,2.52,0,4.96,1.11,7.32,3.33,2.36,2.22,3.92,5.24,4.69,9.06,1.05,5.2.05,10.78-2.99,16.75-3.04,5.97-7.31,11.57-12.79,16.81-5.48,5.24-11.3,9.5-17.44,12.79l-7.45,4.01h-.46c1.7-20.8,1.52-36.32-.55-46.57-.52-2.6-1.14-4.42-1.84-5.45-.71-1.03-1.52-1.55-2.43-1.55s-1.89.67-2.92,2.01c-1.03,1.34-2.27,3.35-3.72,6.02h-1.03c2.15-4.13,3.83-7.21,5.02-9.23ZM361.25,131.35c7.3-5.12,12.36-10.78,15.16-16.98,2.8-6.19,3.56-12.5,2.27-18.93-.59-2.91-1.51-5.1-2.76-6.6-1.26-1.49-2.54-2.24-3.84-2.24-1.07,0-2.08.57-3.04,1.72-.96,1.15-2.02,3.56-3.19,7.23-1.17,3.67-2.56,9.1-4.18,16.29.09,6.5-.13,13-.66,19.5h.23ZM395.42,98.54c2.29-6.27,5.86-11.36,10.69-15.26,4.84-3.9,10.2-5.85,16.09-5.85,3.13,0,5.66.67,7.57,2.01,1.91,1.34,3.07,3,3.47,4.99.74,3.67-1.35,7.25-6.27,10.73-4.92,3.48-12.05,6.71-21.39,9.69.05,1.76.3,3.79.77,6.08,1.19,5.89,3.2,10.27,6.03,13.13,2.83,2.87,6.2,4.3,10.1,4.3,2.91,0,5.32-.99,7.26-2.98,1.93-1.99,3.63-5.24,5.09-9.75h.92c-2.13,7.27-4.82,12.89-8.07,16.86-3.25,3.98-7.48,5.96-12.68,5.96s-9.49-1.85-13.34-5.56c-3.84-3.71-6.4-8.7-7.66-14.97-1.34-6.65-.86-13.11,1.43-19.39ZM419.01,95.5c2.79-3.4,3.81-7.02,3.04-10.84-.34-1.68-.97-2.92-1.9-3.73-.93-.8-2.04-1.2-3.34-1.2-2.22,0-4.24,1.09-6.05,3.27-1.82,2.18-3.2,5.1-4.14,8.78-.94,3.67-1.34,7.61-1.18,11.82,6.25-1.99,10.78-4.68,13.57-8.09ZM322.55,169.56l2.68-.89v-19.44l-2.68-.45v-.22l5.81-2.14h.04v22.25l2.68.89v.22h-8.54v-.22ZM331.53,169.56l2.68-.89v-19.48l-2.68-.45v-.22l5.81-2.1h.04v4.11c1.94-1.37,3.61-2.4,5.03-3.08,1.41-.69,2.66-1.03,3.73-1.03,1.43,0,2.63.38,3.6,1.14.97.76,1.62,1.81,1.94,3.15,2.06-1.46,3.81-2.54,5.25-3.24,1.44-.7,2.69-1.05,3.73-1.05,1.76,0,3.16.57,4.2,1.72,1.04,1.15,1.56,2.69,1.56,4.63v15.91l2.59.89v.22h-8.45v-.22l2.68-.89v-15.46c0-1.61-.42-2.84-1.25-3.71-.83-.86-1.92-1.3-3.26-1.3-1.01,0-2.05.23-3.11.69-1.06.46-2.35,1.23-3.87,2.3.09.48.13,1,.13,1.56v15.91l2.59.89v.22h-8.45v-.22l2.68-.89v-15.46c0-1.61-.42-2.84-1.25-3.71-.83-.86-1.92-1.3-3.26-1.3-1.01,0-2.04.23-3.08.69-1.04.46-2.29,1.2-3.75,2.21v17.56l2.68.89v.22h-8.54v-.22ZM369.02,178.5l2.68-.89v-28.42l-2.68-.45v-.22l5.81-2.1h.04v4.02c1.46-1.31,2.84-2.31,4.16-2.99,1.31-.69,2.74-1.03,4.29-1.03,1.76,0,3.35.44,4.78,1.32,1.43.88,2.56,2.17,3.4,3.87.83,1.7,1.25,3.74,1.25,6.12,0,2.56-.51,4.81-1.52,6.75-1.01,1.94-2.38,3.42-4.09,4.45-1.71,1.03-3.61,1.54-5.7,1.54s-4.25-.51-6.57-1.52v8.67l3.57.89v.22h-9.43v-.22ZM377.49,168.74c1.09.79,2.46,1.18,4.13,1.18,2.35,0,4.26-.89,5.72-2.68,1.46-1.79,2.19-4.39,2.19-7.82,0-2.38-.37-4.42-1.12-6.1-.74-1.68-1.75-2.95-3.02-3.8-1.27-.85-2.66-1.27-4.18-1.27-2.26,0-4.38.94-6.35,2.82v14.97c.65,1.01,1.53,1.91,2.61,2.7ZM396.06,169.85c-.86-.4-1.52-.93-1.97-1.59-.45-.66-.67-1.34-.67-2.06s.25-1.26.74-1.72c.49-.46,1.47-.99,2.93-1.59l9.12-3.71v-6.61c0-3.28-1.4-4.92-4.2-4.92-1.4,0-2.53.37-3.4,1.09-.86.73-1.3,1.66-1.3,2.79,0,.71.15,1.46.45,2.23-.42.33-.91.49-1.47.49-.51,0-.92-.15-1.23-.45-.31-.3-.47-.72-.47-1.25,0-.57.24-1.15.71-1.74.48-.6,1.33-1.31,2.55-2.14,1.22-.83,2.25-1.42,3.08-1.77.83-.34,1.67-.51,2.5-.51,1.76,0,3.19.54,4.29,1.61,1.1,1.07,1.65,2.59,1.65,4.56v14.52c0,.57.17,1.02.51,1.36.34.34.77.51,1.27.51.57,0,1.19-.15,1.88-.45v.22c-1.1.6-1.92,1.01-2.46,1.23s-1.09.34-1.65.34c-.86,0-1.53-.27-2.01-.8-.48-.54-.72-1.34-.72-2.41v-1.12c-.63,1.25-1.57,2.31-2.84,3.17-1.27.86-2.69,1.3-4.27,1.3-1.16,0-2.17-.2-3.04-.6ZM397.73,167.66c.82.67,1.88,1.01,3.2,1.01s2.36-.36,3.33-1.09c.97-.73,1.62-1.62,1.94-2.66v-5.18l-6.93,2.86c-1.1.45-1.84.86-2.21,1.23-.37.37-.56.84-.56,1.41,0,.95.41,1.77,1.23,2.44ZM417.42,169.07c-1.61-.92-2.85-2.23-3.73-3.93-.88-1.7-1.32-3.69-1.32-5.99,0-2.47.49-4.68,1.47-6.61.98-1.94,2.35-3.44,4.11-4.51,1.76-1.07,3.72-1.61,5.9-1.61,1.46,0,2.75.22,3.87.67,1.12.45,1.97,1.04,2.57,1.77.6.73.89,1.51.89,2.35,0,.69-.18,1.25-.54,1.7-.36.45-.73.72-1.12.8-.78-2.12-1.73-3.75-2.86-4.89-1.13-1.15-2.55-1.72-4.25-1.72-2.12,0-3.79.88-5.03,2.64-1.24,1.76-1.85,4.08-1.85,6.97,0,2.29.39,4.31,1.16,6.05.77,1.74,1.87,3.08,3.28,4.02,1.41.94,3.03,1.41,4.85,1.41,2,0,3.56-.51,4.69-1.54,1.13-1.03,2.04-2.69,2.73-4.98l.27.04c-.66,2.68-1.68,4.81-3.06,6.39-1.39,1.58-3.54,2.37-6.46,2.37-2.12,0-3.98-.46-5.59-1.39ZM436.07,169.34c-.79-.74-1.18-1.79-1.18-3.13v-17.79h-2.59v-.22c1.25-.54,2.39-1.36,3.42-2.48s1.74-2.35,2.12-3.69h.22v5.05h6.12v1.34h-6.12v17.2c0,.92.25,1.64.74,2.14.49.51,1.21.76,2.17.76.77,0,1.44-.15,2.01-.45.57-.3,1.22-.77,1.97-1.43l.18.18c-1.31,1.31-2.38,2.24-3.22,2.79-.83.55-1.73.83-2.68.83-1.31,0-2.36-.37-3.15-1.12ZM340.02,23.73c-1.01-.81-6.39-1.41-7.96-1.62-4.76-.62-9.81-1.23-14.59-1.63-4.52-.38-11.19-1.22-15.46,1.33,7.84,9.32,18.42,21.84,19.43,22.68,1.62,1.35,4.78,2.86,7.11.42,2.34-2.44,2.51-5.6,2.55-5.72,0,0,1.68,11.78-2.84,15.32-4.52,3.54-9.38-2.58-10.09-3.41-.45-.54-10.54-16.67-17.67-28.12-.4.39-.78.81-1.1,1.31-1.91,2.96.29,8.18,1.54,11.22.59,1.42,1.47,3.39,2.27,4.61.38.58.42,1.35.72,1.88.58,1.03,1.43,2.16,2.09,3.16.39.59.61,1.43,1.02,2,.05.07.11.13.17.2l18.92,81.38s-.02.04-.04.05c-.15.17-.33.3-.49.46-.31.31-1.06,1.55-.5,1.86.44.24.55.69.6,1.15.09,1.04-.39,2.11-.61,3.12-.08.36-.02,1.31-.36,1.48-.71.35-1.73-.15-2.44-.34l-.71-.09c-.42-.03-.74-.12-1.06.22-.77.84-1.19,2.15-1.68,3.17-.19.39-.47.83-.8,1.11-.09.07-.18.14-.28.2-.59.4-1.2.79-1.93.79-.28,0-.73-.09-.99,0-.19.07-.38.24-.42.43-.03.13,0,.26,0,.39.06.47.79.36,1.12.45.47.12.93.37,1.4.57.44.18,1.02.22,1.37.57.26.26,1.22.61,1.33.05l.12-.56-.09-.65s.15-.44.15-.45c.34-1.02,1.44-1.59,1.82-2.57.1-.25.22-.39.43-.54.02-.02.05-.03.07-.03.03,0,.06.03.07.06.27.42.44.91.63,1.37.35.88.83,1.68,1.62,2.22.22.15.43.29.67.4.85.36,1.86.37,2.76.39.31,0,.63,0,.93-.08.56-.16.92-.6,1.38-.92.5-.35,1.06-.6,1.53-1,.67-.57,1.12-1.36,1.44-2.18.35-.88.45-1.84.89-2.7.29-.56.7-1.04,1.07-1.54.07-.09.13-.18.17-.28.04-.1.05-.21.05-.31.02-.93-.77-1.56-1.49-2.01-.4-.25-.83-.47-1.25-.7-.27-.15-.92-.32-1.01-.65-.03-.11-.02-.23-.03-.35-.03-.31-.18-.51-.48-.55-.06,0-.71.08-.71.08-.07-.28.14-.43.25-.65,0,0,.92-1.81-.53-2.58-.4-.21-2.16-.82-2.04.19.03.26-.1.29-.26.44-.2.18-.37.37-.43.64-.26-.06-.41-.41-.57-.62l9.77-61.16c.15-.21-.05-.5-.01-1.13.06-.88.44-1.96.47-3.06.05-1.71.07-2.06.39-3.75.31-1.69.09-2.37.12-3.91.01-.77.46-1.76.51-2.62.04-.64-.13-1.25-.1-1.81.06-1.08.83-2.11.8-3.24-.01-.4-.29-.83-.27-1.27.05-.94.61-2.24.68-3.35.09-1.44.22-1.62.48-2.95.38-1.95.45-3.68.52-5.62.02-.42.27-.96.3-1.42.09-1.19.05-2.61.12-3.83.07-1.06.34-2.37.34-3.41,0-.83-.29-1.45-.93-1.97ZM316.63,54.5h0s0,0,0,0ZM307.78,47.91c.1.1.19.2.27.3.4.53.86,1.39,1.26,1.84.36.4,1.05.66,1.46,1.05.48.46.82,1.28,1.21,1.71.56.62,2.1,1.61,2.88,2.31,1.1,1,1.38,1.47,1.95,2.34l8.9,67.58-17.93-77.13ZM326.27,126.08l-8.94-67.85s0,0,0,0c2.17,3.07,4.92,5.98,8.17,7.85.26.15.51.29.76.42v59.57ZM327.08,129.68c.02-.1.05-.21.08-.31.01-.03.02-.09.05-.09.03,0,.05.06.06.08.04.12.05.24.08.36.06.25.11.51.16.77.03.17.05.35.13.5.07.11.17.2.22.33.04.09.03.21.02.31,0,0,0,.02,0,.02,0,0-.01,0-.02,0-.06.02-.13.02-.19.05-.09.04-.09.1-.08.19,0,.08,0,.17,0,.25,0,.02,0,.03-.01.05-.04.08-.23.03-.3.03,0,0-.02,0-.02,0-.06-.02-.06-.13-.06-.18-.05-.42-.1-.84-.13-1.27-.03-.36-.04-.74.03-1.09ZM327.12,135.84c.16.18.38.6.3.85-.08.25-.83.34-.96.12,0,0,0,0,0-.01-.13-.24.03-.72.13-.95.13-.32.33-.25.54,0ZM326.69,126.39v-59.67c3.01,1.49,5.21,1.53,8.96.71.19-.04.34-.08.47-.12l-9.43,59.07Z"/><metadata><i:aipgfRef id="adobe_illustrator_pgf"/><i:aipgf id="adobe_illustrator_pgf" i:pgfEncoding="zstd/base64" i:pgfVersion="24"></i:aipgf></metadata></svg>